# xmcd
#
# Track frame offsets: 
#        150
#        26006
#        45271
#        64395
#        81519
#        95741
#        129949
#        151162
#        215536
#        245779
#        262979
#        289587
#        326550
#
# Disc length: 4719 seconds
#
# Revision: 1
# Processed by: cddbd v1.5.2PL0 Copyright (c) Steve Scherf et al.
# Submitted via: ExactAudioCopy v0.99pb4
#
DISCID=b8126d0d
DTITLE=Various Artist - Munich City Nights Vol.68
DYEAR=2002
DGENRE=Rock
TTITLE0=Triumph - Too much Thinking
TTITLE1=Gamma - Condition yellow
TTITLE2=Judas Priest - Metal Gods
TTITLE3=Blue Öyster Cult - Godzilla
TTITLE4=Meat Loaf - Rock´n´Roll Mercenaires
TTITLE5=Georgje Red - If I say Stop then Stop (Sex-Mix)
TTITLE6=Green Jelly - Electric Harley House of Love
TTITLE7=Jan Akkerman - All along the watchtower
TTITLE8=Jestofunk - Fluid
TTITLE9=Robin Trower - Caledonia
TTITLE10=Steve Stevens - Atomic Playboys
TTITLE11=Straight Shooter - My time - your time
TTITLE12=Traks - Long Train Running [9:15 to Nowhre Mix]
EXTD=
EXTT0=
EXTT1=
EXTT2=
EXTT3=
EXTT4=
EXTT5=
EXTT6=
EXTT7=
EXTT8=
EXTT9=
EXTT10=
EXTT11=
EXTT12=
PLAYORDER=
